<?xml version="1.0" encoding="utf-8"?>
<!-- Generator: Adobe Illustrator 22.1.0, SVG Export Plug-In . SVG Version: 6.00 Build 0)  -->
<svg version="1.1" id="wallet-pay" xmlns="http://www.w3.org/2000/svg" xmlns:xlink="http://www.w3.org/1999/xlink" x="0px" y="0px"
	 viewBox="0 0 64 64" style="enable-background:new 0 0 64 64;" xml:space="preserve">
<style type="text/css">
	.st0{fill:#25820F;}
	.st1{fill:#5FEA15;}
	.st2{fill:#FFF200;}
	.st3{fill:#231F20;}
</style>
<title></title>
<path class="st0" d="M52,9.4V25L4.2,18c0.3-0.8,1-1.5,1.8-1.8L42.3,2.4h0.1C43.2,2.1,44.1,2,45,2l0,0c1.8,0,3.6,0.7,4.8,2
	C51.2,5.4,52,7.4,52,9.4z"/>
<path class="st1" d="M54,18H25c-0.1,0-0.2,0-0.3,0H4.2c0,0.1-0.1,0.2-0.1,0.3C4,18.6,4,18.8,4,19v34c0,3.3,2.7,6,6,6h44
	c3.3,0,6-2.7,6-6V24C60,20.7,57.3,18,54,18z"/>
<path class="st2" d="M60,30v18H44c-2.2,0-4-1.8-4-4V34c0-2.2,1.8-4,4-4H60z"/>
<circle class="st3" cx="48" cy="39" r="3"/>
</svg>
