<?xml version="1.0" encoding="utf-8"?>
<!-- Generator: Adobe Illustrator 22.1.0, SVG Export Plug-In . SVG Version: 6.00 Build 0)  -->
<svg version="1.1" id="Слой_1" xmlns="http://www.w3.org/2000/svg" xmlns:xlink="http://www.w3.org/1999/xlink" x="0px" y="0px"
	 viewBox="0 0 64 64" style="enable-background:new 0 0 64 64;" xml:space="preserve">
<style type="text/css">
	.st0{fill:#5FEA15;}
	.st1{fill:#25820F;}
	.st2{fill:#FFF200;}
	.st3{fill:#FFBE00;}
</style>
<title></title>
<g id="talk-discount">
	<path class="st0" d="M61,11v35c0,2.8-2.2,5-5,5H35.2c-1.4,0-2.8,0.1-4.2,0.4c-2.3,0.4-4.5,1.2-6.5,2.3l-11.5,6.1
		C12.6,59.9,12.3,60,12,60c-1.1,0-2-0.9-2-2v-5c0-1.1-0.9-2-2-2c-2.8,0-5-2.2-5-5V11c0-2.8,2.2-5,5-5h48C58.8,6,61,8.2,61,11z"/>
	<path class="st1" d="M61,11v35c0,2.8-2.2,5-5,5H35.2c-1.4,0-2.8,0.1-4.2,0.4V6h25C58.8,6,61,8.2,61,11z"/>
	<path class="st2" d="M43.4,19.5L31,31.3l-9.6,9.2C21,40.8,20.5,41,20,41c-1.1,0-2-0.9-2-2c0-0.5,0.2-1.1,0.6-1.5L31,25.7l9.6-9.2
		c0.8-0.8,2.1-0.7,2.8,0.1C44.2,17.4,44.2,18.7,43.4,19.5z"/>
	<path class="st2" d="M29,20.5c0-3.6-2.9-6.5-6.5-6.5S16,16.9,16,20.5s2.9,6.5,6.5,6.5C26.1,27,29,24.1,29,20.5z M20,20.5
		c0-1.4,1.1-2.5,2.5-2.5s2.5,1.1,2.5,2.5S23.9,23,22.5,23S20,21.9,20,20.5z"/>
	<path class="st2" d="M39.5,30c-3.6,0-6.5,2.9-6.5,6.5s2.9,6.5,6.5,6.5s6.5-2.9,6.5-6.5C46,32.9,43.1,30,39.5,30z M39.5,39
		c-1.4,0-2.5-1.1-2.5-2.5s1.1-2.5,2.5-2.5s2.5,1.1,2.5,2.5S40.9,39,39.5,39z"/>
	<path class="st3" d="M43.5,16.6c-0.8-0.8-2-0.8-2.8-0.1c0,0,0,0,0,0L31,25.7v5.5l12.4-11.8C44.2,18.7,44.2,17.4,43.5,16.6
		C43.5,16.6,43.5,16.6,43.5,16.6z"/>
	<path class="st3" d="M39.5,30c-3.6,0-6.5,2.9-6.5,6.5s2.9,6.5,6.5,6.5s6.5-2.9,6.5-6.5C46,32.9,43.1,30,39.5,30z M39.5,39
		c-1.4,0-2.5-1.1-2.5-2.5s1.1-2.5,2.5-2.5s2.5,1.1,2.5,2.5S40.9,39,39.5,39z"/>
</g>
</svg>
